<?xml version="1.0" encoding="UTF-8" standalone="no"?><svg xmlns="http://www.w3.org/2000/svg" xmlns:xlink="http://www.w3.org/1999/xlink" fill="#000000" height="44" preserveAspectRatio="xMidYMid meet" version="1" viewBox="0.0 0.0 33.9 44.0" width="33.9" zoomAndPan="magnify"><defs><clipPath id="a"><path d="M 0 0 L 33.929688 0 L 33.929688 44 L 0 44 Z M 0 0"/></clipPath></defs><g><g clip-path="url(#a)" id="change1_1"><path d="M 28.6875 18.882812 L 5.355469 18.882812 C 4.046875 18.882812 2.976562 17.808594 2.976562 16.5 C 2.976562 15.191406 4.046875 14.121094 5.355469 14.121094 L 28.570312 14.121094 C 29.878906 14.121094 30.949219 15.191406 30.949219 16.5 C 30.949219 17.808594 30 18.882812 28.691406 18.882812 Z M 17.023438 39 C 14.285156 39 11.785156 37.925781 9.878906 36.023438 L 11.664062 36.023438 C 12.5 36.023438 13.09375 35.308594 13.09375 34.59375 C 13.09375 33.882812 12.378906 33.164062 11.664062 33.164062 L 7.738281 33.164062 C 7.5 32.570312 7.261719 31.976562 7.140625 31.382812 L 12.855469 31.382812 C 13.691406 31.382812 14.285156 30.664062 14.285156 29.953125 C 14.285156 29.117188 13.570312 28.523438 12.855469 28.523438 L 6.902344 28.523438 L 6.902344 26.738281 L 14.046875 26.738281 C 14.878906 26.738281 15.476562 26.023438 15.476562 25.308594 C 15.476562 24.59375 14.761719 23.878906 14.046875 23.878906 L 6.902344 23.878906 L 6.902344 22.09375 L 27.140625 22.09375 L 27.140625 29.234375 C 27.140625 34.476562 22.617188 39 17.023438 39 Z M 33.925781 16.5 C 33.925781 13.523438 31.546875 11.144531 28.570312 11.144531 L 18.570312 11.144531 C 18.570312 7.453125 17.023438 1.859375 11.191406 0.0742188 C 10.355469 -0.164062 9.523438 0.191406 9.285156 1.023438 C 9.046875 1.859375 9.40625 2.691406 10.238281 2.929688 C 14.761719 4.359375 15.476562 8.882812 15.476562 11.144531 L 5.355469 11.144531 C 2.382812 11.144531 0 13.523438 0 16.5 C 0 18.882812 1.667969 21.023438 3.808594 21.621094 L 3.808594 29 C 3.808594 35.667969 8.929688 41.261719 15.476562 41.976562 L 15.476562 42.570312 C 15.476562 43.40625 16.191406 44 16.90625 44 C 17.617188 44 18.332031 43.285156 18.332031 42.570312 L 18.332031 41.976562 C 24.878906 41.261719 30 35.667969 30 29 L 30 21.621094 C 32.378906 20.90625 33.925781 18.882812 33.925781 16.5" fill="#ffdfc1"/></g></g></svg>